<svg width="500" height="125" viewBox="0 0 500 125" fill="none" xmlns="http://www.w3.org/2000/svg">
<path fill-rule="evenodd" clip-rule="evenodd" d="M65.2161 63L44.1081 26.4398L23 63L44.1081 99.5602L65.2161 63Z" fill="#6AA8A0"/>
<path d="M44.1081 26.4398L45.8401 25.4398C45.4828 24.821 44.8226 24.4398 44.1081 24.4398C43.3935 24.4398 42.7333 24.821 42.376 25.4398L44.1081 26.4398ZM65.2161 63L66.9482 64C67.3054 63.3812 67.3054 62.6188 66.9482 62L65.2161 63ZM23 63L21.2679 62C20.9107 62.6188 20.9107 63.3812 21.2679 64L23 63ZM44.1081 99.5602L42.376 100.56C42.7333 101.179 43.3935 101.56 44.1081 101.56C44.8226 101.56 45.4828 101.179 45.8401 100.56L44.1081 99.5602ZM42.376 27.4398L63.4841 64L66.9482 62L45.8401 25.4398L42.376 27.4398ZM24.7321 64L45.8401 27.4398L42.376 25.4398L21.2679 62L24.7321 64ZM45.8401 98.5602L24.7321 62L21.2679 64L42.376 100.56L45.8401 98.5602ZM63.4841 62L42.376 98.5602L45.8401 100.56L66.9482 64L63.4841 62Z" fill="white"/>
<path fill-rule="evenodd" clip-rule="evenodd" d="M107.432 63L86.3243 26.4398L44.1082 26.4398L65.2162 63H107.432Z" fill="#8DDFD4"/>
<path d="M86.3243 26.4398L88.0563 25.4398C87.699 24.821 87.0388 24.4398 86.3243 24.4398V26.4398ZM107.432 63V65C108.147 65 108.807 64.6188 109.164 64C109.522 63.3812 109.522 62.6188 109.164 62L107.432 63ZM44.1082 26.4398L44.1082 24.4398C43.3936 24.4398 42.7334 24.821 42.3761 25.4398C42.0188 26.0586 42.0188 26.821 42.3761 27.4398L44.1082 26.4398ZM65.2162 63L63.4841 64C63.8414 64.6188 64.5017 65 65.2162 65V63ZM84.5922 27.4398L105.7 64L109.164 62L88.0563 25.4398L84.5922 27.4398ZM44.1082 28.4398L86.3243 28.4398V24.4398L44.1082 24.4398L44.1082 28.4398ZM66.9482 62L45.8402 25.4398L42.3761 27.4398L63.4841 64L66.9482 62ZM107.432 61H65.2162V65H107.432V61Z" fill="white"/>
<path fill-rule="evenodd" clip-rule="evenodd" d="M86.3243 99.5602L107.432 63L65.2162 63L65.2162 63L44.1082 99.5603L86.3243 99.5602Z" fill="#6AA8A0"/>
<path d="M107.432 63L109.164 64C109.522 63.3812 109.522 62.6188 109.164 62C108.807 61.3812 108.147 61 107.432 61V63ZM86.3243 99.5602V101.56C87.0388 101.56 87.699 101.179 88.0563 100.56L86.3243 99.5602ZM65.2162 63L65.2162 61C64.3783 61 63.6292 61.5223 63.3395 62.3085C63.0498 63.0948 63.281 63.9782 63.9186 64.5219L65.2162 63ZM65.2162 63L66.9483 64C67.4306 63.1646 67.2479 62.104 66.5138 61.4781L65.2162 63ZM44.1082 99.5603L42.3761 98.5603C42.0188 99.1791 42.0188 99.9415 42.3761 100.56C42.7334 101.179 43.3936 101.56 44.1082 101.56L44.1082 99.5603ZM105.7 62L84.5922 98.5602L88.0563 100.56L109.164 64L105.7 62ZM65.2162 65L107.432 65V61L65.2162 61L65.2162 65ZM66.5138 61.4781L66.5138 61.4781L63.9186 64.5219L63.9186 64.5219L66.5138 61.4781ZM45.8402 100.56L66.9483 64L63.4842 62L42.3761 98.5603L45.8402 100.56ZM86.3243 97.5602L44.1082 97.5603L44.1082 101.56L86.3243 101.56V97.5602Z" fill="white"/>
<path d="M133.56 96C132.92 96 132.376 95.808 131.928 95.424C131.544 94.976 131.352 94.432 131.352 93.792V31.104C131.352 30.4 131.544 29.856 131.928 29.472C132.376 29.024 132.92 28.8 133.56 28.8H138.36C139.064 28.8 139.608 29.024 139.992 29.472C140.44 29.856 140.664 30.4 140.664 31.104V54.912L166.296 30.336C167.32 29.312 168.568 28.8 170.04 28.8H175.224C175.736 28.8 176.184 28.992 176.568 29.376C176.952 29.76 177.144 30.208 177.144 30.72C177.144 31.232 177.016 31.648 176.76 31.968L147.096 60.96L178.68 92.736C179 93.12 179.16 93.568 179.16 94.08C179.16 94.592 178.968 95.04 178.584 95.424C178.2 95.808 177.752 96 177.24 96H171.864C170.456 96 169.208 95.456 168.12 94.368L140.664 67.392V93.792C140.664 94.432 140.44 94.976 139.992 95.424C139.544 95.808 139 96 138.36 96H133.56ZM195.264 96.96C192.128 96.96 189.216 96.32 186.528 95.04C183.84 93.76 181.696 92.032 180.096 89.856C178.56 87.616 177.792 85.152 177.792 82.464C177.792 78.24 179.52 74.784 182.976 72.096C186.496 69.344 191.232 67.552 197.184 66.72L211.488 64.704V61.92C211.488 55.392 207.744 52.128 200.256 52.128C197.44 52.128 195.136 52.736 193.344 53.952C191.552 55.104 190.208 56.48 189.312 58.08C189.12 58.656 188.864 59.072 188.544 59.328C188.288 59.584 187.904 59.712 187.392 59.712H183.264C182.688 59.712 182.176 59.52 181.728 59.136C181.344 58.688 181.152 58.176 181.152 57.6C181.216 56.064 181.92 54.336 183.264 52.416C184.672 50.432 186.816 48.736 189.696 47.328C192.576 45.856 196.128 45.12 200.352 45.12C207.52 45.12 212.672 46.816 215.808 50.208C218.944 53.536 220.512 57.696 220.512 62.688V93.792C220.512 94.432 220.288 94.976 219.84 95.424C219.456 95.808 218.944 96 218.304 96H213.888C213.248 96 212.704 95.808 212.256 95.424C211.872 94.976 211.68 94.432 211.68 93.792V89.664C210.272 91.712 208.224 93.44 205.536 94.848C202.848 96.256 199.424 96.96 195.264 96.96ZM197.28 89.76C201.44 89.76 204.832 88.416 207.456 85.728C210.144 82.976 211.488 79.04 211.488 73.92V71.232L200.352 72.864C195.808 73.504 192.384 74.592 190.08 76.128C187.776 77.6 186.624 79.488 186.624 81.792C186.624 84.352 187.68 86.336 189.792 87.744C191.904 89.088 194.4 89.76 197.28 89.76ZM236.257 114.24C235.745 114.24 235.297 114.048 234.913 113.664C234.529 113.28 234.337 112.832 234.337 112.32C234.337 111.872 234.497 111.296 234.817 110.592L242.209 93.024L223.873 49.728C223.553 48.896 223.393 48.352 223.393 48.096C223.393 47.52 223.585 47.04 223.969 46.656C224.353 46.272 224.833 46.08 225.409 46.08H230.113C231.137 46.08 231.905 46.624 232.417 47.712L247.009 82.656L261.985 47.712C262.497 46.624 263.297 46.08 264.385 46.08H268.897C269.473 46.08 269.953 46.272 270.337 46.656C270.721 47.04 270.913 47.488 270.913 48C270.913 48.192 270.753 48.768 270.433 49.728L243.169 112.608C242.657 113.696 241.857 114.24 240.769 114.24H236.257ZM277.034 96C276.394 96 275.85 95.808 275.402 95.424C275.018 94.976 274.826 94.432 274.826 93.792V30.048C274.826 29.408 275.018 28.896 275.402 28.512C275.85 28.064 276.394 27.84 277.034 27.84H281.546C282.186 27.84 282.698 28.064 283.082 28.512C283.53 28.896 283.754 29.408 283.754 30.048V93.792C283.754 94.432 283.53 94.976 283.082 95.424C282.698 95.808 282.186 96 281.546 96H277.034ZM312.282 96.96C305.69 96.96 300.41 94.944 296.442 90.912C292.538 86.816 290.394 81.248 290.01 74.208L289.914 70.944L290.01 67.776C290.458 60.864 292.634 55.36 296.538 51.264C300.506 47.168 305.722 45.12 312.186 45.12C319.29 45.12 324.794 47.392 328.698 51.936C332.602 56.416 334.554 62.496 334.554 70.176V71.808C334.554 72.448 334.33 72.992 333.882 73.44C333.498 73.824 332.986 74.016 332.346 74.016H299.13V74.88C299.322 79.04 300.57 82.592 302.874 85.536C305.242 88.416 308.346 89.856 312.186 89.856C315.13 89.856 317.53 89.28 319.386 88.128C321.306 86.912 322.714 85.664 323.61 84.384C324.186 83.616 324.602 83.168 324.858 83.04C325.178 82.848 325.722 82.752 326.49 82.752H331.194C331.77 82.752 332.25 82.912 332.634 83.232C333.018 83.552 333.21 84 333.21 84.576C333.21 85.984 332.314 87.68 330.522 89.664C328.794 91.648 326.33 93.376 323.13 94.848C319.994 96.256 316.378 96.96 312.282 96.96ZM325.434 67.392V67.104C325.434 62.688 324.218 59.104 321.786 56.352C319.418 53.536 316.218 52.128 312.186 52.128C308.154 52.128 304.954 53.536 302.586 56.352C300.282 59.104 299.13 62.688 299.13 67.104V67.392H325.434ZM360.241 96.96C353.649 96.96 348.369 94.944 344.401 90.912C340.497 86.816 338.353 81.248 337.969 74.208L337.873 70.944L337.969 67.776C338.417 60.864 340.593 55.36 344.497 51.264C348.465 47.168 353.681 45.12 360.145 45.12C367.249 45.12 372.753 47.392 376.657 51.936C380.561 56.416 382.513 62.496 382.513 70.176V71.808C382.513 72.448 382.289 72.992 381.841 73.44C381.457 73.824 380.945 74.016 380.305 74.016H347.089V74.88C347.281 79.04 348.529 82.592 350.833 85.536C353.201 88.416 356.305 89.856 360.145 89.856C363.089 89.856 365.489 89.28 367.345 88.128C369.265 86.912 370.673 85.664 371.569 84.384C372.145 83.616 372.561 83.168 372.817 83.04C373.137 82.848 373.681 82.752 374.449 82.752H379.153C379.729 82.752 380.209 82.912 380.593 83.232C380.977 83.552 381.169 84 381.169 84.576C381.169 85.984 380.273 87.68 378.481 89.664C376.753 91.648 374.289 93.376 371.089 94.848C367.953 96.256 364.337 96.96 360.241 96.96ZM373.393 67.392V67.104C373.393 62.688 372.177 59.104 369.745 56.352C367.377 53.536 364.177 52.128 360.145 52.128C356.113 52.128 352.913 53.536 350.545 56.352C348.241 59.104 347.089 62.688 347.089 67.104V67.392H373.393Z" fill="url(#paint0_linear_156_2)"/>
<path d="M131.928 95.424L128.891 98.0272L129.091 98.2608L129.325 98.461L131.928 95.424ZM131.928 29.472L134.756 32.3004L134.756 32.3004L131.928 29.472ZM139.992 29.472L136.955 32.0752L137.155 32.3088L137.389 32.509L139.992 29.472ZM140.664 54.912H136.664V64.2888L143.432 57.7993L140.664 54.912ZM166.296 30.336L169.064 33.2233L169.095 33.1942L169.124 33.1644L166.296 30.336ZM176.568 29.376L173.74 32.2044L173.74 32.2044L176.568 29.376ZM176.76 31.968L179.556 34.8286L179.731 34.6577L179.883 34.4668L176.76 31.968ZM147.096 60.96L144.3 58.0994L141.415 60.9189L144.259 63.7798L147.096 60.96ZM178.68 92.736L181.753 90.1753L181.641 90.0405L181.517 89.9162L178.68 92.736ZM178.584 95.424L181.412 98.2524L181.412 98.2524L178.584 95.424ZM168.12 94.368L170.948 91.5396L170.936 91.5271L170.923 91.5147L168.12 94.368ZM140.664 67.392L143.467 64.5387L136.664 57.8543V67.392H140.664ZM139.992 95.424L142.595 98.461L142.712 98.3611L142.82 98.2524L139.992 95.424ZM133.56 92C133.644 92 133.804 92.0135 134.003 92.084C134.208 92.1562 134.389 92.2651 134.531 92.387L129.325 98.461C130.561 99.5209 132.052 100 133.56 100V92ZM134.965 92.8208C135.087 92.9631 135.196 93.1443 135.268 93.3487C135.338 93.5485 135.352 93.7078 135.352 93.792H127.352C127.352 95.2997 127.831 96.7907 128.891 98.0272L134.965 92.8208ZM135.352 93.792V31.104H127.352V93.792H135.352ZM135.352 31.104C135.352 31.1089 135.352 31.2612 135.268 31.4993C135.178 31.7546 135.013 32.044 134.756 32.3004L129.1 26.6436C127.762 27.9816 127.352 29.6672 127.352 31.104H135.352ZM134.756 32.3004C134.636 32.4208 134.448 32.5626 134.195 32.6667C133.943 32.7705 133.716 32.8 133.56 32.8V24.8C131.871 24.8 130.306 25.4369 129.1 26.6436L134.756 32.3004ZM133.56 32.8H138.36V24.8H133.56V32.8ZM138.36 32.8C138.29 32.8 138.069 32.7887 137.773 32.6667C137.459 32.5375 137.173 32.3293 136.955 32.0752L143.029 26.8688C141.737 25.3618 139.984 24.8 138.36 24.8V32.8ZM137.389 32.509C137.135 32.2912 136.927 32.0049 136.797 31.691C136.675 31.3949 136.664 31.1739 136.664 31.104H144.664C144.664 29.4803 144.102 27.7267 142.595 26.435L137.389 32.509ZM136.664 31.104V54.912H144.664V31.104H136.664ZM143.432 57.7993L169.064 33.2233L163.528 27.4487L137.896 52.0247L143.432 57.7993ZM169.124 33.1644C169.385 32.9043 169.609 32.8 170.04 32.8V24.8C167.527 24.8 165.255 25.7197 163.468 27.5076L169.124 33.1644ZM170.04 32.8H175.224V24.8H170.04V32.8ZM175.224 32.8C174.966 32.8 174.667 32.7487 174.368 32.6206C174.074 32.4945 173.866 32.3312 173.74 32.2044L179.396 26.5476C178.313 25.4639 176.866 24.8 175.224 24.8V32.8ZM173.74 32.2044C173.613 32.0776 173.45 31.8699 173.323 31.5757C173.195 31.2768 173.144 30.9779 173.144 30.72H181.144C181.144 29.0778 180.48 27.6312 179.396 26.5476L173.74 32.2044ZM173.144 30.72C173.144 30.5555 173.196 30.0205 173.637 29.4692L179.883 34.4668C180.836 33.2755 181.144 31.9085 181.144 30.72H173.144ZM173.964 29.1074L144.3 58.0994L149.892 63.8206L179.556 34.8286L173.964 29.1074ZM144.259 63.7798L175.843 95.5558L181.517 89.9162L149.933 58.1402L144.259 63.7798ZM175.607 95.2967C175.482 95.1461 175.359 94.9463 175.273 94.7053C175.187 94.4657 175.16 94.2474 175.16 94.08H183.16C183.16 92.657 182.688 91.2969 181.753 90.1753L175.607 95.2967ZM175.16 94.08C175.16 93.8221 175.211 93.5232 175.339 93.2243C175.466 92.9301 175.629 92.7224 175.756 92.5956L181.412 98.2524C182.496 97.1688 183.16 95.7222 183.16 94.08H175.16ZM175.756 92.5956C175.882 92.4688 176.09 92.3055 176.384 92.1794C176.683 92.0513 176.982 92 177.24 92V100C178.882 100 180.329 99.3361 181.412 98.2524L175.756 92.5956ZM177.24 92H171.864V100H177.24V92ZM171.864 92C171.621 92 171.363 91.9541 170.948 91.5396L165.292 97.1964C167.053 98.9579 169.291 100 171.864 100V92ZM170.923 91.5147L143.467 64.5387L137.861 70.2453L165.317 97.2213L170.923 91.5147ZM136.664 67.392V93.792H144.664V67.392H136.664ZM136.664 93.792C136.664 93.6357 136.693 93.4091 136.797 93.157C136.901 92.9041 137.043 92.716 137.164 92.5956L142.82 98.2524C144.027 97.0458 144.664 95.4808 144.664 93.792H136.664ZM137.389 92.387C137.531 92.2651 137.712 92.1562 137.917 92.084C138.116 92.0135 138.276 92 138.36 92V100C139.868 100 141.359 99.5209 142.595 98.461L137.389 92.387ZM138.36 92H133.56V100H138.36V92ZM186.528 95.04L188.248 91.4286L188.248 91.4286L186.528 95.04ZM180.096 89.856L176.797 92.1181L176.834 92.1725L176.873 92.2256L180.096 89.856ZM182.976 72.096L185.432 75.2534L185.44 75.2472L182.976 72.096ZM197.184 66.72L197.738 70.6815L197.742 70.6809L197.184 66.72ZM211.488 64.704L212.046 68.6649L215.488 68.1798V64.704H211.488ZM193.344 53.952L195.507 57.3167L195.549 57.2898L195.59 57.2619L193.344 53.952ZM189.312 58.08L185.822 56.1256L185.637 56.4559L185.517 56.8151L189.312 58.08ZM188.544 59.328L186.045 56.2045L185.872 56.3429L185.716 56.4996L188.544 59.328ZM181.728 59.136L178.691 61.7392L178.891 61.9728L179.125 62.173L181.728 59.136ZM181.152 57.6L177.155 57.4335L177.152 57.5167V57.6H181.152ZM183.264 52.416L180.002 50.101L179.994 50.1116L179.987 50.1221L183.264 52.416ZM189.696 47.328L191.453 50.9215L191.485 50.9059L191.516 50.8897L189.696 47.328ZM215.808 50.208L212.871 52.9234L212.884 52.9374L212.897 52.9512L215.808 50.208ZM219.84 95.424L222.668 98.2524L222.668 98.2524L219.84 95.424ZM212.256 95.424L209.219 98.0272L209.419 98.2608L209.653 98.461L212.256 95.424ZM211.68 89.664H215.68V76.7853L208.384 87.3979L211.68 89.664ZM205.536 94.848L203.68 91.3047L203.68 91.3047L205.536 94.848ZM207.456 85.728L204.594 82.933L204.594 82.9339L207.456 85.728ZM211.488 71.232H215.488V66.6031L210.908 67.2743L211.488 71.232ZM200.352 72.864L200.91 76.8249L200.921 76.8233L200.932 76.8217L200.352 72.864ZM190.08 76.128L192.234 79.4988L192.266 79.4778L192.299 79.4562L190.08 76.128ZM189.792 87.744L187.573 91.0722L187.609 91.0958L187.644 91.1186L189.792 87.744ZM195.264 92.96C192.691 92.96 190.37 92.4391 188.248 91.4286L184.808 98.6514C188.062 100.201 191.565 100.96 195.264 100.96V92.96ZM188.248 91.4286C186.093 90.4026 184.489 89.078 183.319 87.4864L176.873 92.2256C178.903 94.986 181.587 97.1174 184.808 98.6514L188.248 91.4286ZM183.395 87.5939C182.31 86.0124 181.792 84.3355 181.792 82.464H173.792C173.792 85.9685 174.809 89.2196 176.797 92.1181L183.395 87.5939ZM181.792 82.464C181.792 79.526 182.909 77.2158 185.432 75.2534L180.52 68.9386C176.131 72.3522 173.792 76.954 173.792 82.464H181.792ZM185.44 75.2472C188.246 73.053 192.251 71.4485 197.738 70.6815L196.63 62.7585C190.213 63.6555 184.746 65.635 180.512 68.9448L185.44 75.2472ZM197.742 70.6809L212.046 68.6649L210.93 60.7431L196.626 62.7591L197.742 70.6809ZM215.488 64.704V61.92H207.488V64.704H215.488ZM215.488 61.92C215.488 57.8857 214.306 54.1738 211.309 51.5609C208.416 49.0394 204.492 48.128 200.256 48.128V56.128C203.508 56.128 205.2 56.8486 206.051 57.5911C206.798 58.2422 207.488 59.4263 207.488 61.92H215.488ZM200.256 48.128C196.877 48.128 193.726 48.859 191.098 50.6421L195.59 57.2619C196.546 56.613 198.003 56.128 200.256 56.128V48.128ZM191.181 50.5873C188.927 52.0361 187.086 53.8678 185.822 56.1256L192.802 60.0344C193.33 59.0922 194.177 58.1719 195.507 57.3167L191.181 50.5873ZM185.517 56.8151C185.496 56.8791 185.503 56.8351 185.569 56.7276C185.638 56.6168 185.784 56.4133 186.045 56.2045L191.043 62.4515C192.189 61.5343 192.781 60.3213 193.107 59.3449L185.517 56.8151ZM185.716 56.4996C186.474 55.7409 187.287 55.712 187.392 55.712V63.712C188.521 63.712 190.102 63.4271 191.372 62.1564L185.716 56.4996ZM187.392 55.712H183.264V63.712H187.392V55.712ZM183.264 55.712C183.43 55.712 183.636 55.7414 183.852 55.8227C184.068 55.9034 184.228 56.0108 184.331 56.099L179.125 62.173C180.278 63.1618 181.708 63.712 183.264 63.712V55.712ZM184.765 56.5328C184.853 56.6358 184.961 56.7962 185.041 57.0115C185.123 57.2282 185.152 57.4342 185.152 57.6H177.152C177.152 59.156 177.702 60.5856 178.691 61.7392L184.765 56.5328ZM185.149 57.7665C185.168 57.2956 185.422 56.3088 186.541 54.7098L179.987 50.1221C178.418 52.3632 177.264 54.8324 177.155 57.4335L185.149 57.7665ZM186.526 54.731C187.444 53.4382 188.989 52.126 191.453 50.9215L187.939 43.7345C184.643 45.346 181.9 47.4258 180.002 50.101L186.526 54.731ZM191.516 50.8897C193.687 49.7802 196.574 49.12 200.352 49.12V41.12C195.682 41.12 191.465 41.9318 187.876 43.7663L191.516 50.8897ZM200.352 49.12C207.012 49.12 210.824 50.7093 212.871 52.9234L218.745 47.4926C214.52 42.9227 208.028 41.12 200.352 41.12V49.12ZM212.897 52.9512C215.267 55.466 216.512 58.6138 216.512 62.688H224.512C224.512 56.7782 222.621 51.606 218.719 47.4648L212.897 52.9512ZM216.512 62.688V93.792H224.512V62.688H216.512ZM216.512 93.792C216.512 93.6357 216.541 93.4091 216.645 93.157C216.749 92.9041 216.891 92.716 217.012 92.5956L222.668 98.2524C223.875 97.0458 224.512 95.4808 224.512 93.792H216.512ZM217.012 92.5956C217.226 92.3809 217.489 92.2137 217.764 92.1107C218.026 92.0122 218.225 92 218.304 92V100C219.801 100 221.401 99.5194 222.668 98.2524L217.012 92.5956ZM218.304 92H213.888V100H218.304V92ZM213.888 92C213.972 92 214.132 92.0135 214.331 92.084C214.536 92.1562 214.717 92.2651 214.859 92.387L209.653 98.461C210.889 99.5209 212.38 100 213.888 100V92ZM215.293 92.8208C215.415 92.9631 215.524 93.1443 215.596 93.3487C215.666 93.5485 215.68 93.7078 215.68 93.792H207.68C207.68 95.2997 208.159 96.7907 209.219 98.0272L215.293 92.8208ZM215.68 93.792V89.664H207.68V93.792H215.68ZM208.384 87.3979C207.418 88.8032 205.917 90.1329 203.68 91.3047L207.392 98.3913C210.531 96.7471 213.126 94.6208 214.976 91.9301L208.384 87.3979ZM203.68 91.3047C201.737 92.3223 199.005 92.96 195.264 92.96V100.96C199.843 100.96 203.959 100.19 207.392 98.3913L203.68 91.3047ZM197.28 93.76C202.39 93.76 206.857 92.0679 210.318 88.5221L204.594 82.9339C202.807 84.7641 200.49 85.76 197.28 85.76V93.76ZM210.318 88.523C213.951 84.8027 215.488 79.7285 215.488 73.92H207.488C207.488 78.3515 206.337 81.1493 204.594 82.933L210.318 88.523ZM215.488 73.92V71.232H207.488V73.92H215.488ZM210.908 67.2743L199.772 68.9063L200.932 76.8217L212.068 75.1897L210.908 67.2743ZM199.794 68.9031C194.998 69.5785 190.889 70.7814 187.861 72.7998L192.299 79.4562C193.879 78.4026 196.618 77.4295 200.91 76.8249L199.794 68.9031ZM187.926 72.7572C184.722 74.8047 182.624 77.851 182.624 81.792H190.624C190.624 81.125 190.83 80.3953 192.234 79.4988L187.926 72.7572ZM182.624 81.792C182.624 85.6756 184.337 88.9147 187.573 91.0722L192.011 84.4158C191.023 83.7573 190.624 83.0284 190.624 81.792H182.624ZM187.644 91.1186C190.49 92.9297 193.756 93.76 197.28 93.76V85.76C195.044 85.76 193.318 85.2463 191.939 84.3694L187.644 91.1186ZM234.913 113.664L232.085 116.492L232.085 116.492L234.913 113.664ZM234.817 110.592L238.459 112.247L238.482 112.196L238.504 112.143L234.817 110.592ZM242.209 93.024L245.896 94.5753L246.551 93.019L245.893 91.4641L242.209 93.024ZM223.873 49.728L220.14 51.1639L220.164 51.2263L220.19 51.2879L223.873 49.728ZM223.969 46.656L226.798 49.4844L226.798 49.4844L223.969 46.656ZM232.417 47.712L236.109 46.1707L236.074 46.0889L236.037 46.0088L232.417 47.712ZM247.009 82.656L243.318 84.1973L246.962 92.922L250.686 84.2317L247.009 82.656ZM261.985 47.712L258.366 46.0088L258.336 46.0721L258.309 46.1363L261.985 47.712ZM270.433 49.728L274.103 51.3192L274.173 51.1588L274.228 50.9929L270.433 49.728ZM243.169 112.608L246.789 114.311L246.815 114.256L246.839 114.199L243.169 112.608ZM236.257 110.24C236.515 110.24 236.814 110.291 237.113 110.419C237.407 110.546 237.615 110.709 237.742 110.836L232.085 116.492C233.169 117.576 234.615 118.24 236.257 118.24V110.24ZM237.742 110.836C237.869 110.962 238.032 111.17 238.158 111.464C238.286 111.763 238.337 112.062 238.337 112.32H230.337C230.337 113.962 231.001 115.409 232.085 116.492L237.742 110.836ZM238.337 112.32C238.337 112.444 238.327 112.532 238.32 112.578C238.312 112.623 238.307 112.64 238.312 112.623C238.316 112.606 238.328 112.566 238.353 112.5C238.377 112.435 238.412 112.351 238.459 112.247L231.176 108.937C230.767 109.836 230.337 111.028 230.337 112.32H238.337ZM238.504 112.143L245.896 94.5753L238.523 91.4727L231.131 109.041L238.504 112.143ZM245.893 91.4641L227.557 48.1681L220.19 51.2879L238.526 94.5839L245.893 91.4641ZM227.607 48.2921C227.539 48.115 227.484 47.9652 227.44 47.8405C227.396 47.7144 227.368 47.6251 227.351 47.5673C227.333 47.5047 227.336 47.5068 227.346 47.5575C227.351 47.585 227.362 47.6416 227.372 47.7213C227.381 47.7975 227.393 47.9276 227.393 48.096H219.393C219.393 48.8436 219.586 49.5201 219.676 49.8247C219.799 50.2415 219.96 50.6969 220.14 51.1639L227.607 48.2921ZM227.393 48.096C227.393 48.2589 227.365 48.5061 227.251 48.7896C227.136 49.0777 226.969 49.3131 226.798 49.4844L221.141 43.8276C219.958 45.0108 219.393 46.5306 219.393 48.096H227.393ZM226.798 49.4844C226.627 49.6558 226.391 49.8226 226.103 49.9379C225.82 50.0513 225.572 50.08 225.409 50.08V42.08C223.844 42.08 222.324 42.6444 221.141 43.8276L226.798 49.4844ZM225.409 50.08H230.113V42.08H225.409V50.08ZM230.113 50.08C229.874 50.08 229.497 50.0014 229.145 49.7521C228.831 49.5293 228.756 49.3258 228.798 49.4152L236.037 46.0088C235.567 45.0102 234.852 43.9907 233.77 43.2239C232.65 42.4306 231.377 42.08 230.113 42.08V50.08ZM228.726 49.2533L243.318 84.1973L250.701 81.1147L236.109 46.1707L228.726 49.2533ZM250.686 84.2317L265.662 49.2877L258.309 46.1363L243.333 81.0803L250.686 84.2317ZM265.605 49.4152C265.629 49.3629 265.539 49.5781 265.219 49.7957C264.875 50.0298 264.54 50.08 264.385 50.08V42.08C263.143 42.08 261.864 42.4022 260.72 43.1803C259.6 43.9419 258.854 44.9731 258.366 46.0088L265.605 49.4152ZM264.385 50.08H268.897V42.08H264.385V50.08ZM268.897 50.08C268.735 50.08 268.487 50.0513 268.204 49.9379C267.916 49.8226 267.68 49.6558 267.509 49.4844L273.166 43.8276C271.983 42.6444 270.463 42.08 268.897 42.08V50.08ZM267.509 49.4844C267.382 49.3576 267.219 49.1499 267.093 48.8557C266.965 48.5568 266.913 48.2579 266.913 48H274.913C274.913 46.3578 274.25 44.9112 273.166 43.8276L267.509 49.4844ZM266.913 48C266.913 47.8775 266.92 47.7774 266.925 47.7083C266.931 47.6374 266.938 47.5799 266.944 47.5397C266.955 47.4622 266.965 47.412 266.968 47.4002C266.972 47.3787 266.967 47.407 266.939 47.5054C266.886 47.6989 266.79 48.01 266.639 48.4631L274.228 50.9929C274.397 50.486 274.541 50.0291 274.648 49.6466C274.698 49.4653 274.913 48.7374 274.913 48H266.913ZM266.764 48.1368L239.5 111.017L246.839 114.199L274.103 51.3192L266.764 48.1368ZM239.55 110.905C239.526 110.957 239.616 110.742 239.936 110.524C240.28 110.29 240.615 110.24 240.769 110.24V118.24C242.012 118.24 243.291 117.918 244.435 117.14C245.555 116.378 246.301 115.347 246.789 114.311L239.55 110.905ZM240.769 110.24H236.257V118.24H240.769V110.24ZM275.402 95.424L272.365 98.0272L272.565 98.2608L272.799 98.461L275.402 95.424ZM275.402 28.512L278.231 31.3404L278.231 31.3404L275.402 28.512ZM283.082 28.512L280.045 31.1152L280.245 31.3488L280.479 31.549L283.082 28.512ZM283.082 95.424L285.911 98.2524L285.911 98.2524L283.082 95.424ZM277.034 92C277.118 92 277.278 92.0135 277.478 92.084C277.682 92.1562 277.863 92.2651 278.005 92.387L272.799 98.461C274.036 99.5209 275.527 100 277.034 100V92ZM278.439 92.8208C278.561 92.9631 278.67 93.1443 278.742 93.3487C278.813 93.5485 278.826 93.7078 278.826 93.792H270.826C270.826 95.2997 271.305 96.7907 272.365 98.0272L278.439 92.8208ZM278.826 93.792V30.048H270.826V93.792H278.826ZM278.826 30.048C278.826 30.1275 278.814 30.326 278.716 30.5885C278.613 30.8633 278.445 31.1258 278.231 31.3404L272.574 25.6836C271.307 26.9505 270.826 28.551 270.826 30.048H278.826ZM278.231 31.3404C278.11 31.4608 277.922 31.6026 277.669 31.7067C277.417 31.8105 277.191 31.84 277.034 31.84V23.84C275.345 23.84 273.78 24.4769 272.574 25.6836L278.231 31.3404ZM277.034 31.84H281.546V23.84H277.034V31.84ZM281.546 31.84C281.394 31.84 281.125 31.8117 280.807 31.6726C280.481 31.5298 280.223 31.3222 280.045 31.1152L286.119 25.9088C284.905 24.4927 283.242 23.84 281.546 23.84V31.84ZM280.479 31.549C280.272 31.3715 280.064 31.1137 279.922 30.7873C279.783 30.4694 279.754 30.2001 279.754 30.048H287.754C287.754 28.3521 287.102 26.6888 285.685 25.475L280.479 31.549ZM279.754 30.048V93.792H287.754V30.048H279.754ZM279.754 93.792C279.754 93.6357 279.784 93.4091 279.888 93.157C279.992 92.9041 280.133 92.716 280.254 92.5956L285.911 98.2524C287.117 97.0458 287.754 95.4808 287.754 93.792H279.754ZM280.254 92.5956C280.468 92.3809 280.731 92.2137 281.006 92.1107C281.268 92.0122 281.467 92 281.546 92V100C283.043 100 284.644 99.5194 285.911 98.2524L280.254 92.5956ZM281.546 92H277.034V100H281.546V92ZM296.442 90.912L293.547 93.6717L293.569 93.6949L293.591 93.7177L296.442 90.912ZM290.01 74.208L286.012 74.3256L286.013 74.3758L286.016 74.4259L290.01 74.208ZM289.914 70.944L285.916 70.8228L285.912 70.9422L285.916 71.0616L289.914 70.944ZM290.01 67.776L286.018 67.5173L286.014 67.586L286.012 67.6548L290.01 67.776ZM296.538 51.264L293.665 48.4808L293.654 48.4925L293.643 48.5042L296.538 51.264ZM328.698 51.936L325.664 54.5427L325.673 54.5533L325.682 54.5639L328.698 51.936ZM333.882 73.44L336.71 76.2684L336.71 76.2684L333.882 73.44ZM299.13 74.016V70.016H295.13V74.016H299.13ZM299.13 74.88H295.13V74.9723L295.134 75.0644L299.13 74.88ZM302.874 85.536L299.724 88.0012L299.754 88.0392L299.784 88.0764L302.874 85.536ZM319.386 88.128L321.495 91.5266L321.511 91.517L321.526 91.5073L319.386 88.128ZM323.61 84.384L320.41 81.984L320.371 82.0364L320.333 82.0902L323.61 84.384ZM324.858 83.04L326.647 86.6177L326.784 86.549L326.916 86.47L324.858 83.04ZM332.634 83.232L330.073 86.3049L330.073 86.3049L332.634 83.232ZM330.522 89.664L327.554 86.9829L327.529 87.0097L327.506 87.0369L330.522 89.664ZM323.13 94.848L324.768 98.4971L324.785 98.4896L324.802 98.482L323.13 94.848ZM325.434 67.392V71.392H329.434V67.392H325.434ZM321.786 56.352L318.725 58.9264L318.756 58.964L318.789 59.0008L321.786 56.352ZM302.586 56.352L299.525 53.7776L299.519 53.7843L302.586 56.352ZM299.13 67.392H295.13V71.392H299.13V67.392ZM312.282 92.96C306.57 92.96 302.384 91.2476 299.293 88.1063L293.591 93.7177C298.436 98.6404 304.81 100.96 312.282 100.96V92.96ZM299.337 88.1522C296.24 84.9028 294.349 80.3208 294.004 73.9901L286.016 74.4259C286.439 82.1752 288.836 88.7292 293.547 93.6717L299.337 88.1522ZM294.008 74.0904L293.912 70.8264L285.916 71.0616L286.012 74.3256L294.008 74.0904ZM293.912 71.0652L294.008 67.8972L286.012 67.6548L285.916 70.8228L293.912 71.0652ZM294.002 68.0347C294.403 61.8417 296.313 57.2978 299.433 54.0237L293.643 48.5042C288.955 53.4222 286.513 59.8863 286.018 67.5173L294.002 68.0347ZM299.411 54.0472C302.522 50.8357 306.647 49.12 312.186 49.12V41.12C304.797 41.12 298.49 43.5003 293.665 48.4808L299.411 54.0472ZM312.186 49.12C318.363 49.12 322.663 51.0494 325.664 54.5427L331.732 49.3293C326.925 43.7346 320.217 41.12 312.186 41.12V49.12ZM325.682 54.5639C328.784 58.1237 330.554 63.173 330.554 70.176H338.554C338.554 61.819 336.42 54.7083 331.714 49.3081L325.682 54.5639ZM330.554 70.176V71.808H338.554V70.176H330.554ZM330.554 71.808C330.554 71.6517 330.583 71.4251 330.687 71.173C330.791 70.9201 330.933 70.732 331.054 70.6116L336.71 76.2684C337.917 75.0618 338.554 73.4968 338.554 71.808H330.554ZM331.054 70.6116C331.268 70.3969 331.531 70.2297 331.806 70.1267C332.068 70.0282 332.267 70.016 332.346 70.016V78.016C333.843 78.016 335.443 77.5354 336.71 76.2684L331.054 70.6116ZM332.346 70.016H299.13V78.016H332.346V70.016ZM295.13 74.016V74.88H303.13V74.016H295.13ZM295.134 75.0644C295.36 79.9552 296.85 84.3294 299.724 88.0012L306.024 83.0708C304.29 80.8546 303.284 78.1248 303.126 74.6956L295.134 75.0644ZM299.784 88.0764C302.938 91.912 307.191 93.856 312.186 93.856V85.856C309.501 85.856 307.546 84.92 305.964 82.9956L299.784 88.0764ZM312.186 93.856C315.624 93.856 318.822 93.1859 321.495 91.5266L317.277 84.7294C316.238 85.3741 314.636 85.856 312.186 85.856V93.856ZM321.526 91.5073C323.707 90.1261 325.583 88.5412 326.887 86.6778L320.333 82.0902C319.845 82.7868 318.905 83.6979 317.246 84.7487L321.526 91.5073ZM326.81 86.784C326.928 86.6263 327.028 86.4983 327.111 86.3965C327.196 86.2932 327.253 86.2286 327.285 86.1938C327.301 86.1772 327.305 86.1727 327.3 86.1777C327.296 86.1822 327.275 86.2023 327.239 86.233C327.204 86.2628 327.142 86.314 327.054 86.3758C326.969 86.4357 326.832 86.5253 326.647 86.6177L323.069 79.4623C322.252 79.8709 321.672 80.4822 321.423 80.7502C321.082 81.1172 320.74 81.5434 320.41 81.984L326.81 86.784ZM326.916 86.47C326.698 86.6007 326.516 86.6718 326.405 86.7087C326.293 86.7462 326.219 86.7599 326.201 86.7631C326.174 86.7678 326.256 86.752 326.49 86.752V78.752C325.616 78.752 324.116 78.8203 322.8 79.61L326.916 86.47ZM326.49 86.752H331.194V78.752H326.49V86.752ZM331.194 86.752C331.111 86.752 330.941 86.7401 330.721 86.6667C330.494 86.591 330.269 86.4682 330.073 86.3049L335.195 80.1591C333.984 79.1503 332.555 78.752 331.194 78.752V86.752ZM330.073 86.3049C329.793 86.0715 329.549 85.7549 329.389 85.3837C329.237 85.0278 329.21 84.7327 329.21 84.576H337.21C337.21 83.0149 336.635 81.3596 335.195 80.1591L330.073 86.3049ZM329.21 84.576C329.21 84.436 329.25 84.5646 329.001 85.0355C328.756 85.5005 328.307 86.1484 327.554 86.9829L333.49 92.3451C335.423 90.2059 337.21 87.547 337.21 84.576H329.21ZM327.506 87.0369C326.253 88.4752 324.309 89.9027 321.458 91.214L324.802 98.482C328.351 96.8493 331.335 94.8208 333.538 92.2911L327.506 87.0369ZM321.492 91.1989C318.96 92.3356 315.92 92.96 312.282 92.96V100.96C316.836 100.96 321.028 100.176 324.768 98.4971L321.492 91.1989ZM329.434 67.392V67.104H321.434V67.392H329.434ZM329.434 67.104C329.434 61.9197 327.987 57.3281 324.783 53.7032L318.789 59.0008C320.449 60.8799 321.434 63.4563 321.434 67.104H329.434ZM324.847 53.7776C321.641 49.9641 317.271 48.128 312.186 48.128V56.128C315.165 56.128 317.195 57.1079 318.725 58.9264L324.847 53.7776ZM312.186 48.128C307.101 48.128 302.731 49.9641 299.525 53.7776L305.647 58.9264C307.177 57.1079 309.207 56.128 312.186 56.128V48.128ZM299.519 53.7843C296.483 57.4109 295.13 61.9729 295.13 67.104H303.13C303.13 63.4031 304.081 60.7971 305.653 58.9197L299.519 53.7843ZM295.13 67.104V67.392H303.13V67.104H295.13ZM299.13 71.392H325.434V63.392H299.13V71.392ZM344.401 90.912L341.505 93.6717L341.527 93.6949L341.55 93.7177L344.401 90.912ZM337.969 74.208L333.97 74.3256L333.972 74.3758L333.975 74.4259L337.969 74.208ZM337.873 70.944L333.875 70.8228L333.871 70.9422L333.874 71.0616L337.873 70.944ZM337.969 67.776L333.977 67.5173L333.973 67.586L333.971 67.6548L337.969 67.776ZM344.497 51.264L341.624 48.4808L341.612 48.4925L341.601 48.5042L344.497 51.264ZM376.657 51.936L373.623 54.5427L373.632 54.5533L373.641 54.5639L376.657 51.936ZM381.841 73.44L384.669 76.2684L384.669 76.2684L381.841 73.44ZM347.089 74.016V70.016H343.089V74.016H347.089ZM347.089 74.88H343.089V74.9723L343.093 75.0644L347.089 74.88ZM350.833 85.536L347.683 88.0012L347.712 88.0392L347.743 88.0764L350.833 85.536ZM367.345 88.128L369.454 91.5266L369.47 91.517L369.485 91.5073L367.345 88.128ZM371.569 84.384L368.369 81.984L368.329 82.0364L368.292 82.0902L371.569 84.384ZM372.817 83.04L374.606 86.6177L374.743 86.549L374.875 86.47L372.817 83.04ZM380.593 83.232L378.032 86.3049L378.032 86.3049L380.593 83.232ZM378.481 89.664L375.512 86.9829L375.488 87.0097L375.464 87.0369L378.481 89.664ZM371.089 94.848L372.727 98.4971L372.744 98.4896L372.76 98.482L371.089 94.848ZM373.393 67.392V71.392H377.393V67.392H373.393ZM369.745 56.352L366.683 58.9264L366.715 58.964L366.747 59.0008L369.745 56.352ZM350.545 56.352L347.483 53.7776L347.478 53.7843L350.545 56.352ZM347.089 67.392H343.089V71.392H347.089V67.392ZM360.241 92.96C354.529 92.96 350.343 91.2476 347.252 88.1063L341.55 93.7177C346.394 98.6404 352.769 100.96 360.241 100.96V92.96ZM347.296 88.1522C344.199 84.9028 342.308 80.3208 341.963 73.9901L333.975 74.4259C334.397 82.1752 336.794 88.7292 341.505 93.6717L347.296 88.1522ZM341.967 74.0904L341.871 70.8264L333.874 71.0616L333.97 74.3256L341.967 74.0904ZM341.871 71.0652L341.967 67.8972L333.971 67.6548L333.875 70.8228L341.871 71.0652ZM341.96 68.0347C342.362 61.8417 344.272 57.2978 347.392 54.0237L341.601 48.5042C336.914 53.4222 334.472 59.8863 333.977 67.5173L341.96 68.0347ZM347.37 54.0472C350.481 50.8357 354.605 49.12 360.145 49.12V41.12C352.756 41.12 346.449 43.5003 341.624 48.4808L347.37 54.0472ZM360.145 49.12C366.321 49.12 370.622 51.0494 373.623 54.5427L379.691 49.3293C374.884 43.7346 368.176 41.12 360.145 41.12V49.12ZM373.641 54.5639C376.743 58.1237 378.513 63.173 378.513 70.176H386.513C386.513 61.819 384.378 54.7083 379.672 49.3081L373.641 54.5639ZM378.513 70.176V71.808H386.513V70.176H378.513ZM378.513 71.808C378.513 71.6517 378.542 71.4251 378.646 71.173C378.75 70.9201 378.892 70.732 379.012 70.6116L384.669 76.2684C385.876 75.0618 386.513 73.4968 386.513 71.808H378.513ZM379.012 70.6116C379.227 70.3969 379.489 70.2297 379.764 70.1267C380.027 70.0282 380.225 70.016 380.305 70.016V78.016C381.802 78.016 383.402 77.5354 384.669 76.2684L379.012 70.6116ZM380.305 70.016H347.089V78.016H380.305V70.016ZM343.089 74.016V74.88H351.089V74.016H343.089ZM343.093 75.0644C343.319 79.9552 344.809 84.3294 347.683 88.0012L353.983 83.0708C352.248 80.8546 351.243 78.1248 351.084 74.6956L343.093 75.0644ZM347.743 88.0764C350.897 91.912 355.15 93.856 360.145 93.856V85.856C357.46 85.856 355.505 84.92 353.922 82.9956L347.743 88.0764ZM360.145 93.856C363.583 93.856 366.781 93.1859 369.454 91.5266L365.235 84.7294C364.197 85.3741 362.595 85.856 360.145 85.856V93.856ZM369.485 91.5073C371.666 90.1261 373.541 88.5412 374.846 86.6778L368.292 82.0902C367.804 82.7868 366.864 83.6979 365.205 84.7487L369.485 91.5073ZM374.769 86.784C374.887 86.6263 374.987 86.4983 375.07 86.3965C375.154 86.2932 375.212 86.2286 375.244 86.1938C375.259 86.1772 375.264 86.1727 375.259 86.1777C375.255 86.1822 375.234 86.2023 375.198 86.233C375.163 86.2628 375.101 86.314 375.013 86.3758C374.928 86.4357 374.79 86.5253 374.606 86.6177L371.028 79.4623C370.211 79.8709 369.63 80.4822 369.382 80.7502C369.041 81.1172 368.699 81.5434 368.369 81.984L374.769 86.784ZM374.875 86.47C374.657 86.6007 374.474 86.6718 374.364 86.7087C374.251 86.7462 374.178 86.7599 374.16 86.7631C374.133 86.7678 374.215 86.752 374.449 86.752V78.752C373.575 78.752 372.075 78.8203 370.759 79.61L374.875 86.47ZM374.449 86.752H379.153V78.752H374.449V86.752ZM379.153 86.752C379.069 86.752 378.9 86.7401 378.68 86.6667C378.453 86.591 378.228 86.4682 378.032 86.3049L383.153 80.1591C381.943 79.1503 380.514 78.752 379.153 78.752V86.752ZM378.032 86.3049C377.752 86.0715 377.507 85.7549 377.348 85.3837C377.196 85.0278 377.169 84.7327 377.169 84.576H385.169C385.169 83.0149 384.594 81.3596 383.153 80.1591L378.032 86.3049ZM377.169 84.576C377.169 84.436 377.209 84.5646 376.96 85.0355C376.714 85.5005 376.266 86.1484 375.512 86.9829L381.449 92.3451C383.381 90.2059 385.169 87.547 385.169 84.576H377.169ZM375.464 87.0369C374.212 88.4752 372.268 89.9027 369.417 91.214L372.76 98.482C376.31 96.8493 379.294 94.8208 381.497 92.2911L375.464 87.0369ZM369.45 91.1989C366.919 92.3356 363.879 92.96 360.241 92.96V100.96C364.795 100.96 368.987 100.176 372.727 98.4971L369.45 91.1989ZM377.393 67.392V67.104H369.393V67.392H377.393ZM377.393 67.104C377.393 61.9197 375.945 57.3281 372.742 53.7032L366.747 59.0008C368.408 60.8799 369.393 63.4563 369.393 67.104H377.393ZM372.806 53.7776C369.599 49.9641 365.229 48.128 360.145 48.128V56.128C363.124 56.128 365.154 57.1079 366.683 58.9264L372.806 53.7776ZM360.145 48.128C355.06 48.128 350.69 49.9641 347.483 53.7776L353.606 58.9264C355.135 57.1079 357.165 56.128 360.145 56.128V48.128ZM347.478 53.7843C344.441 57.4109 343.089 61.9729 343.089 67.104H351.089C351.089 63.4031 352.04 60.7971 353.612 58.9197L347.478 53.7843ZM343.089 67.104V67.392H351.089V67.104H343.089ZM347.089 71.392H373.393V63.392H347.089V71.392Z" fill="white"/>
<defs>
<linearGradient id="paint0_linear_156_2" x1="255" y1="15" x2="255" y2="111" gradientUnits="userSpaceOnUse">
<stop stop-color="#AB7781"/>
<stop offset="1" stop-color="#452E33"/>
</linearGradient>
</defs>
</svg>
